<?xml version="1.0" standalone="no"?>
<!DOCTYPE svg PUBLIC "-//W3C//DTD SVG 20010904//EN"
 "http://www.w3.org/TR/2001/REC-SVG-20010904/DTD/svg10.dtd">
<svg version="1.0" xmlns="http://www.w3.org/2000/svg"
 width="220.000000pt" height="220.000000pt" viewBox="0 0 220.000000 220.000000"
 preserveAspectRatio="xMidYMid meet">
<metadata>
Created by potrace 1.14, written by Peter Selinger 2001-2017
</metadata>
<g transform="translate(0.000000,220.000000) scale(0.100000,-0.100000)"
fill="#000000" stroke="none">
<path d="M182 1635 c0 -308 3 -415 11 -416 7 -1 26 -2 42 -3 17 0 36 -5 44
-10 10 -6 12 -6 7 2 -12 19 35 14 58 -5 20 -17 20 -17 7 0 -12 16 -11 17 20
15 58 -3 81 1 73 13 -10 16 -11 319 -1 319 5 0 5 6 0 12 -10 17 -10 49 0 71 4
9 4 17 0 17 -10 0 -9 252 1 268 4 7 3 12 -1 12 -5 0 -8 27 -7 60 l2 60 -128 0
-127 0 -1 -415z"/>
<path d="M512 1932 l0 -118 84 -1 c46 -1 88 -2 92 -2 5 -1 8 -133 8 -293 l-1
-293 125 0 125 0 0 293 c0 252 2 292 15 293 8 1 44 2 80 4 36 1 71 3 78 4 9 1
12 31 12 116 l0 115 -309 0 -308 0 -1 -118z"/>
<path d="M246 1014 c-134 -43 -198 -130 -199 -270 -1 -89 21 -135 89 -186 27
-21 81 -50 121 -64 66 -24 113 -54 113 -72 -1 -58 -126 -44 -198 21 l-22 21
-15 -21 c-8 -11 -42 -53 -75 -93 l-61 -73 27 -24 c71 -60 191 -100 296 -98
174 3 298 125 298 291 0 134 -65 197 -294 284 -18 7 -26 17 -26 35 0 49 88 46
151 -5 l37 -29 45 52 c25 29 59 68 75 87 l31 35 -22 23 c-12 13 -54 39 -93 58
-87 43 -196 54 -278 28z"/>
<path d="M1449 988 c0 -24 0 -746 1 -785 0 -23 2 -23 120 -23 l120 0 2 164 3
165 99 -165 99 -164 155 0 154 0 -15 22 c-9 13 -75 114 -147 225 l-132 203 23
32 c13 18 74 102 136 186 62 84 113 155 113 157 0 3 -66 4 -147 3 l-146 -3
-96 -148 -96 -148 -3 150 -3 151 -119 0 c-118 0 -120 0 -121 -22z"/>
<path d="M733 578 l2 -413 123 -3 c121 -3 122 -2 123 20 0 13 1 74 1 136 l1
112 66 1 c36 0 77 2 90 5 36 6 122 52 148 78 39 40 66 114 68 191 4 126 -41
206 -138 251 -61 29 -65 29 -274 32 l-211 3 1 -413z m344 188 c13 -4 26 -18
29 -32 15 -58 -20 -94 -90 -94 l-33 0 0 63 c0 34 1 65 3 68 5 8 61 5 91 -5z"/>
</g>
</svg>
